# xmcd
# 
# Track frame offsets:
#     150
#     12387
#     23915
#     36082
#     48277
#     61495
#     72522
#     80327
#     91690
#     103795
#     113812
#     123410
#     130005
#     140165
#     152810
#     165365
#     177035
#     188217
#     199000
#     210305
# 
# Disc length: 2933
# 
# Revision: 2
# Processed by: cddbd v1.5.2PL0 Copyright (c) Steve Scherf et al.
# Submitted via: fre:ac v1.0.31
# 
DISCID=0b0b7314
DTITLE=Various Artist - Sweet Dreams - Country Love Songs
DYEAR=0
DGENRE=Country
TTITLE0=Young, Fason - Sweet Dreams
TTITLE1=Cline, Patsy - I've Loved and Lost Again
TTITLE2=Jennings, Waylon - Don't Think Twice
TTITLE3=Nelson, Willie - I Can't Find the Time
TTITLE4=Anderson, Lynn - (I Never Promised You A) Rose Garden
TTITLE5=Rodgers, Kenny - Always Leaving, Always Gone
TTITLE6=Drusky, Roy - Hello Walls
TTITLE7=Fargo, Donna - Wishful Thinking
TTITLE8=Jackson, Stonewall - Can't Get Enough of You
TTITLE9=Finder, Freddy - Before the Next Teardrop Falls
TTITLE10=Mandrell, Barbra - Release Me
TTITLE11=Reeves, Jim - Have I Told You Lately That I Love You?
TTITLE12=Gilley, Mickey - Lonely Wine
TTITLE13=Wells, Kitty - Making Believe
TTITLE14=Young, Faron - It's Frour in the Morning
TTITLE15=Jones, George - Your Tender Years
TTITLE16=Cline, Patsy - Hungry for Love
TTITLE17=Rogers, Kenny - She Even Woke Me to Say Goodbye
TTITLE18=Drusky, Roy - The Last Letter
TTITLE19=Funder, Freddy - I Don't Know Why I Love You But I Do
EXTD=
EXTT0=
EXTT1=
EXTT2=
EXTT3=
EXTT4=
EXTT5=
EXTT6=
EXTT7=
EXTT8=
EXTT9=
EXTT10=
EXTT11=
EXTT12=
EXTT13=
EXTT14=
EXTT15=
EXTT16=
EXTT17=
EXTT18=
EXTT19=
PLAYORDER=
